<svg width="26" height="26" viewBox="0 0 26 26" fill="none" xmlns="http://www.w3.org/2000/svg">
<path d="M13 7.3125V8.9375" stroke="#1E1E1E" stroke-width="1.6" stroke-linecap="round" stroke-linejoin="round"/>
<path d="M13 17.0625V18.6875" stroke="#1E1E1E" stroke-width="1.6" stroke-linecap="round" stroke-linejoin="round"/>
<path d="M13 22.75C18.3848 22.75 22.75 18.3848 22.75 13C22.75 7.61522 18.3848 3.25 13 3.25C7.61522 3.25 3.25 7.61522 3.25 13C3.25 18.3848 7.61522 22.75 13 22.75Z" stroke="#1E1E1E" stroke-width="1.6" stroke-linecap="round" stroke-linejoin="round"/>
<path d="M10.5625 17.0625H14.2188C14.7575 17.0625 15.2741 16.8485 15.6551 16.4676C16.036 16.0866 16.25 15.57 16.25 15.0312C16.25 14.4925 16.036 13.9759 15.6551 13.5949C15.2741 13.214 14.7575 13 14.2188 13H11.7812C11.2425 13 10.7259 12.786 10.3449 12.4051C9.96401 12.0241 9.75 11.5075 9.75 10.9688C9.75 10.43 9.96401 9.91337 10.3449 9.53244C10.7259 9.15151 11.2425 8.9375 11.7812 8.9375H15.4375" stroke="#1E1E1E" stroke-width="1.6" stroke-linecap="round" stroke-linejoin="round"/>
</svg>
