<svg width="26" height="26" viewBox="0 0 26 26" fill="none" xmlns="http://www.w3.org/2000/svg">
<path d="M12.9999 17.5266C15.4675 17.5266 17.4679 15.4999 17.4679 12.9999C17.4679 10.4999 15.4675 8.47321 12.9999 8.47321C10.5324 8.47321 8.53198 10.4999 8.53198 12.9999C8.53198 15.4999 10.5324 17.5266 12.9999 17.5266Z" stroke="#1E1E1E" stroke-width="1.6" stroke-linecap="round" stroke-linejoin="round"/>
<path d="M16.3931 5.86451C16.7475 6.03249 17.0872 6.23093 17.4082 6.45767L20.1663 6.41247C21.1011 7.44297 21.8027 8.66774 22.2221 10.0013L20.7964 12.4034C20.8297 12.7984 20.8295 13.1956 20.7959 13.5907L22.2185 15.9927C21.7991 17.3272 21.1026 18.5552 20.1757 19.5942L17.408 19.547C17.0838 19.7693 16.7444 19.9679 16.3923 20.1412L15.0522 22.5803C13.7009 22.8829 12.3008 22.8845 10.9489 22.5847L9.61159 20.1437C9.25651 19.9708 8.9155 19.7698 8.59178 19.5424L5.83374 19.5875C4.8989 18.557 4.19728 17.3323 3.77786 15.9987L5.20357 13.5967C5.17029 13.2016 5.17047 12.8044 5.20413 12.4094L3.78155 10.0073C4.20086 8.67281 4.8974 7.44478 5.8243 6.40582L8.59198 6.45299C8.91616 6.23069 9.25559 6.03214 9.60769 5.85886L10.9478 3.41976C12.2991 3.11708 13.6992 3.11555 15.0511 3.41529L16.3931 5.86451Z" stroke="#1E1E1E" stroke-width="1.6" stroke-linecap="round" stroke-linejoin="round"/>
</svg>
