<svg width="26" height="26" viewBox="0 0 26 26" fill="none" xmlns="http://www.w3.org/2000/svg">
<path d="M21.5313 13.4062L15.7016 19.2359C15.4006 19.5381 15.0429 19.7779 14.649 19.9415C14.2551 20.1051 13.8328 20.1893 13.4063 20.1893C12.9798 20.1893 12.5575 20.1051 12.1636 19.9415C11.7697 19.7779 11.412 19.5381 11.111 19.2359L6.76412 14.8891C6.46196 14.5881 6.2222 14.2303 6.0586 13.8365C5.89501 13.4426 5.81079 13.0203 5.81079 12.5938C5.81079 12.1672 5.89501 11.7449 6.0586 11.351C6.2222 10.9572 6.46196 10.5994 6.76412 10.2984L12.5938 4.46875" stroke="#1E1E1E" stroke-width="1.6" stroke-linecap="round" stroke-linejoin="round"/>
<path d="M8.9375 17.0625L3.25 22.75" stroke="#1E1E1E" stroke-width="1.6" stroke-linecap="round" stroke-linejoin="round"/>
<path d="M14.625 6.5L18.6875 2.4375" stroke="#1E1E1E" stroke-width="1.6" stroke-linecap="round" stroke-linejoin="round"/>
<path d="M23.5625 7.3125L19.5 11.375" stroke="#1E1E1E" stroke-width="1.6" stroke-linecap="round" stroke-linejoin="round"/>
<path d="M22.75 14.625L11.375 3.25" stroke="#1E1E1E" stroke-width="1.6" stroke-linecap="round" stroke-linejoin="round"/>
</svg>
